<?xml version="1.0" encoding="UTF-8"?>
<!--
  Library Manager Icon Pack
  Style: Soft Rounded Outline
  Stroke: 2px, round caps & joins
  Canvas: 24x24
  Color: currentColor (inherits from CSS)
-->
<svg xmlns="http://www.w3.org/2000/svg">
  <defs>
    <!-- Settings / Gear -->
    <symbol id="icon-settings" viewBox="0 0 24 24">
      <path fill="none" stroke="currentColor" stroke-width="2" stroke-linecap="round" stroke-linejoin="round"
        d="M12 15a3 3 0 1 0 0-6 3 3 0 0 0 0 6Z"/>
      <path fill="none" stroke="currentColor" stroke-width="2" stroke-linecap="round" stroke-linejoin="round"
        d="M19.4 15a1.65 1.65 0 0 0 .33 1.82l.06.06a2 2 0 0 1-1.42 3.42 2 2 0 0 1-1.41-.59l-.06-.06a1.65 1.65 0 0 0-1.82-.33 1.65 1.65 0 0 0-1 1.51V21a2 2 0 1 1-4 0v-.09a1.65 1.65 0 0 0-1.08-1.51 1.65 1.65 0 0 0-1.82.33l-.06.06a2 2 0 1 1-2.83-2.83l.06-.06a1.65 1.65 0 0 0 .33-1.82 1.65 1.65 0 0 0-1.51-1H3a2 2 0 1 1 0-4h.09a1.65 1.65 0 0 0 1.51-1.08 1.65 1.65 0 0 0-.33-1.82l-.06-.06a2 2 0 1 1 2.83-2.83l.06.06a1.65 1.65 0 0 0 1.82.33H9a1.65 1.65 0 0 0 1-1.51V3a2 2 0 1 1 4 0v.09a1.65 1.65 0 0 0 1 1.51 1.65 1.65 0 0 0 1.82-.33l.06-.06a2 2 0 0 1 2.83 0 2 2 0 0 1 0 2.83l-.06.06a1.65 1.65 0 0 0-.33 1.82V9a1.65 1.65 0 0 0 1.51 1H21a2 2 0 0 1 0 4h-.09a1.65 1.65 0 0 0-1.51 1Z"/>
    </symbol>

    <!-- Download / Export -->
    <symbol id="icon-download" viewBox="0 0 24 24">
      <path fill="none" stroke="currentColor" stroke-width="2" stroke-linecap="round" stroke-linejoin="round"
        d="M21 15v4a2 2 0 0 1-2 2H5a2 2 0 0 1-2-2v-4"/>
      <polyline fill="none" stroke="currentColor" stroke-width="2" stroke-linecap="round" stroke-linejoin="round"
        points="7 10 12 15 17 10"/>
      <line fill="none" stroke="currentColor" stroke-width="2" stroke-linecap="round" stroke-linejoin="round"
        x1="12" y1="15" x2="12" y2="3"/>
    </symbol>

    <!-- Upload / Import -->
    <symbol id="icon-upload" viewBox="0 0 24 24">
      <path fill="none" stroke="currentColor" stroke-width="2" stroke-linecap="round" stroke-linejoin="round"
        d="M21 15v4a2 2 0 0 1-2 2H5a2 2 0 0 1-2-2v-4"/>
      <polyline fill="none" stroke="currentColor" stroke-width="2" stroke-linecap="round" stroke-linejoin="round"
        points="17 8 12 3 7 8"/>
      <line fill="none" stroke="currentColor" stroke-width="2" stroke-linecap="round" stroke-linejoin="round"
        x1="12" y1="3" x2="12" y2="15"/>
    </symbol>

    <!-- Table / CSV -->
    <symbol id="icon-table" viewBox="0 0 24 24">
      <rect fill="none" stroke="currentColor" stroke-width="2" stroke-linecap="round" stroke-linejoin="round"
        x="3" y="3" width="18" height="18" rx="2"/>
      <line fill="none" stroke="currentColor" stroke-width="2" stroke-linecap="round"
        x1="3" y1="9" x2="21" y2="9"/>
      <line fill="none" stroke="currentColor" stroke-width="2" stroke-linecap="round"
        x1="3" y1="15" x2="21" y2="15"/>
      <line fill="none" stroke="currentColor" stroke-width="2" stroke-linecap="round"
        x1="9" y1="3" x2="9" y2="21"/>
      <line fill="none" stroke="currentColor" stroke-width="2" stroke-linecap="round"
        x1="15" y1="3" x2="15" y2="21"/>
    </symbol>

    <!-- Storage / Shelf / Archive -->
    <symbol id="icon-storage" viewBox="0 0 24 24">
      <rect fill="none" stroke="currentColor" stroke-width="2" stroke-linecap="round" stroke-linejoin="round"
        x="3" y="3" width="18" height="18" rx="2"/>
      <line fill="none" stroke="currentColor" stroke-width="2" stroke-linecap="round"
        x1="3" y1="9" x2="21" y2="9"/>
      <line fill="none" stroke="currentColor" stroke-width="2" stroke-linecap="round"
        x1="3" y1="15" x2="21" y2="15"/>
      <line fill="none" stroke="currentColor" stroke-width="2" stroke-linecap="round"
        x1="9" y1="9" x2="9" y2="15"/>
    </symbol>

    <!-- Sync -->
    <symbol id="icon-sync" viewBox="0 0 24 24">
      <path fill="none" stroke="currentColor" stroke-width="2" stroke-linecap="round" stroke-linejoin="round"
        d="M21 2v6h-6"/>
      <path fill="none" stroke="currentColor" stroke-width="2" stroke-linecap="round" stroke-linejoin="round"
        d="M3 12a9 9 0 0 1 15-6.7L21 8"/>
      <path fill="none" stroke="currentColor" stroke-width="2" stroke-linecap="round" stroke-linejoin="round"
        d="M3 22v-6h6"/>
      <path fill="none" stroke="currentColor" stroke-width="2" stroke-linecap="round" stroke-linejoin="round"
        d="M21 12a9 9 0 0 1-15 6.7L3 16"/>
    </symbol>

    <!-- List / Справочники -->
    <symbol id="icon-list" viewBox="0 0 24 24">
      <line fill="none" stroke="currentColor" stroke-width="2" stroke-linecap="round"
        x1="8" y1="6" x2="21" y2="6"/>
      <line fill="none" stroke="currentColor" stroke-width="2" stroke-linecap="round"
        x1="8" y1="12" x2="21" y2="12"/>
      <line fill="none" stroke="currentColor" stroke-width="2" stroke-linecap="round"
        x1="8" y1="18" x2="21" y2="18"/>
      <circle fill="currentColor" stroke="none" cx="4" cy="6" r="1.5"/>
      <circle fill="currentColor" stroke="none" cx="4" cy="12" r="1.5"/>
      <circle fill="currentColor" stroke="none" cx="4" cy="18" r="1.5"/>
    </symbol>

    <!-- Update Check / Clock with arrow -->
    <symbol id="icon-update" viewBox="0 0 24 24">
      <circle fill="none" stroke="currentColor" stroke-width="2" stroke-linecap="round"
        cx="12" cy="12" r="9"/>
      <polyline fill="none" stroke="currentColor" stroke-width="2" stroke-linecap="round" stroke-linejoin="round"
        points="12 6 12 12 16 14"/>
      <path fill="none" stroke="currentColor" stroke-width="2" stroke-linecap="round" stroke-linejoin="round"
        d="M22 4L20 6"/>
      <path fill="none" stroke="currentColor" stroke-width="2" stroke-linecap="round" stroke-linejoin="round"
        d="M22 4h-4"/>
      <path fill="none" stroke="currentColor" stroke-width="2" stroke-linecap="round" stroke-linejoin="round"
        d="M22 4v4"/>
    </symbol>

    <!-- History / Clock -->
    <symbol id="icon-history" viewBox="0 0 24 24">
      <circle fill="none" stroke="currentColor" stroke-width="2" stroke-linecap="round"
        cx="12" cy="12" r="9"/>
      <polyline fill="none" stroke="currentColor" stroke-width="2" stroke-linecap="round" stroke-linejoin="round"
        points="12 6 12 12 8 14"/>
    </symbol>

    <!-- Chart / Statistics -->
    <symbol id="icon-chart" viewBox="0 0 24 24">
      <line fill="none" stroke="currentColor" stroke-width="2" stroke-linecap="round"
        x1="3" y1="21" x2="21" y2="21"/>
      <rect fill="none" stroke="currentColor" stroke-width="2" stroke-linecap="round" stroke-linejoin="round"
        x="5" y="12" width="4" height="9" rx="1"/>
      <rect fill="none" stroke="currentColor" stroke-width="2" stroke-linecap="round" stroke-linejoin="round"
        x="10" y="6" width="4" height="15" rx="1"/>
      <rect fill="none" stroke="currentColor" stroke-width="2" stroke-linecap="round" stroke-linejoin="round"
        x="15" y="3" width="4" height="18" rx="1"/>
    </symbol>

    <!-- Sparkle / Magic / Enrich -->
    <symbol id="icon-sparkle" viewBox="0 0 24 24">
      <path fill="none" stroke="currentColor" stroke-width="2" stroke-linecap="round" stroke-linejoin="round"
        d="M12 2v4"/>
      <path fill="none" stroke="currentColor" stroke-width="2" stroke-linecap="round" stroke-linejoin="round"
        d="M12 18v4"/>
      <path fill="none" stroke="currentColor" stroke-width="2" stroke-linecap="round" stroke-linejoin="round"
        d="M4.93 4.93l2.83 2.83"/>
      <path fill="none" stroke="currentColor" stroke-width="2" stroke-linecap="round" stroke-linejoin="round"
        d="M16.24 16.24l2.83 2.83"/>
      <path fill="none" stroke="currentColor" stroke-width="2" stroke-linecap="round" stroke-linejoin="round"
        d="M2 12h4"/>
      <path fill="none" stroke="currentColor" stroke-width="2" stroke-linecap="round" stroke-linejoin="round"
        d="M18 12h4"/>
      <path fill="none" stroke="currentColor" stroke-width="2" stroke-linecap="round" stroke-linejoin="round"
        d="M4.93 19.07l2.83-2.83"/>
      <path fill="none" stroke="currentColor" stroke-width="2" stroke-linecap="round" stroke-linejoin="round"
        d="M16.24 7.76l2.83-2.83"/>
    </symbol>

    <!-- Star -->
    <symbol id="icon-star" viewBox="0 0 24 24">
      <polygon fill="none" stroke="currentColor" stroke-width="2" stroke-linecap="round" stroke-linejoin="round"
        points="12 2 15.09 8.26 22 9.27 17 14.14 18.18 21.02 12 17.77 5.82 21.02 7 14.14 2 9.27 8.91 8.26 12 2"/>
    </symbol>

    <!-- Reload / Refresh -->
    <symbol id="icon-reload" viewBox="0 0 24 24">
      <path fill="none" stroke="currentColor" stroke-width="2" stroke-linecap="round" stroke-linejoin="round"
        d="M21 2v6h-6"/>
      <path fill="none" stroke="currentColor" stroke-width="2" stroke-linecap="round" stroke-linejoin="round"
        d="M21 8A9 9 0 0 0 6 6l-3 3"/>
      <path fill="none" stroke="currentColor" stroke-width="2" stroke-linecap="round" stroke-linejoin="round"
        d="M3 22v-6h6"/>
      <path fill="none" stroke="currentColor" stroke-width="2" stroke-linecap="round" stroke-linejoin="round"
        d="M3 16a9 9 0 0 0 15 3l3-3"/>
    </symbol>

    <!-- Grid View -->
    <symbol id="icon-grid" viewBox="0 0 24 24">
      <rect fill="none" stroke="currentColor" stroke-width="2" stroke-linecap="round" stroke-linejoin="round"
        x="3" y="3" width="7" height="7" rx="1.5"/>
      <rect fill="none" stroke="currentColor" stroke-width="2" stroke-linecap="round" stroke-linejoin="round"
        x="14" y="3" width="7" height="7" rx="1.5"/>
      <rect fill="none" stroke="currentColor" stroke-width="2" stroke-linecap="round" stroke-linejoin="round"
        x="3" y="14" width="7" height="7" rx="1.5"/>
      <rect fill="none" stroke="currentColor" stroke-width="2" stroke-linecap="round" stroke-linejoin="round"
        x="14" y="14" width="7" height="7" rx="1.5"/>
    </symbol>

    <!-- List View / Rows -->
    <symbol id="icon-rows" viewBox="0 0 24 24">
      <rect fill="none" stroke="currentColor" stroke-width="2" stroke-linecap="round" stroke-linejoin="round"
        x="3" y="4" width="18" height="5" rx="1.5"/>
      <rect fill="none" stroke="currentColor" stroke-width="2" stroke-linecap="round" stroke-linejoin="round"
        x="3" y="15" width="18" height="5" rx="1.5"/>
    </symbol>

    <!-- Close / X -->
    <symbol id="icon-close" viewBox="0 0 24 24">
      <line fill="none" stroke="currentColor" stroke-width="2" stroke-linecap="round"
        x1="18" y1="6" x2="6" y2="18"/>
      <line fill="none" stroke="currentColor" stroke-width="2" stroke-linecap="round"
        x1="6" y1="6" x2="18" y2="18"/>
    </symbol>

    <!-- Help / Question -->
    <symbol id="icon-help" viewBox="0 0 24 24">
      <circle fill="none" stroke="currentColor" stroke-width="2" stroke-linecap="round"
        cx="12" cy="12" r="9"/>
      <path fill="none" stroke="currentColor" stroke-width="2" stroke-linecap="round" stroke-linejoin="round"
        d="M9.5 9a2.5 2.5 0 0 1 4.9-.5c0 1.5-2.4 2-2.4 3.5"/>
      <circle fill="currentColor" stroke="none" cx="12" cy="16.5" r="1"/>
    </symbol>

    <!-- Moon / Dark theme -->
    <symbol id="icon-moon" viewBox="0 0 24 24">
      <path fill="none" stroke="currentColor" stroke-width="2" stroke-linecap="round" stroke-linejoin="round"
        d="M21 12.79A9 9 0 1 1 11.21 3 7 7 0 0 0 21 12.79z"/>
    </symbol>

    <!-- Sun / Light theme -->
    <symbol id="icon-sun" viewBox="0 0 24 24">
      <circle fill="none" stroke="currentColor" stroke-width="2" stroke-linecap="round"
        cx="12" cy="12" r="4"/>
      <line fill="none" stroke="currentColor" stroke-width="2" stroke-linecap="round"
        x1="12" y1="2" x2="12" y2="4"/>
      <line fill="none" stroke="currentColor" stroke-width="2" stroke-linecap="round"
        x1="12" y1="20" x2="12" y2="22"/>
      <line fill="none" stroke="currentColor" stroke-width="2" stroke-linecap="round"
        x1="4.22" y1="4.22" x2="5.64" y2="5.64"/>
      <line fill="none" stroke="currentColor" stroke-width="2" stroke-linecap="round"
        x1="18.36" y1="18.36" x2="19.78" y2="19.78"/>
      <line fill="none" stroke="currentColor" stroke-width="2" stroke-linecap="round"
        x1="2" y1="12" x2="4" y2="12"/>
      <line fill="none" stroke="currentColor" stroke-width="2" stroke-linecap="round"
        x1="20" y1="12" x2="22" y2="12"/>
      <line fill="none" stroke="currentColor" stroke-width="2" stroke-linecap="round"
        x1="4.22" y1="19.78" x2="5.64" y2="18.36"/>
      <line fill="none" stroke="currentColor" stroke-width="2" stroke-linecap="round"
        x1="18.36" y1="5.64" x2="19.78" y2="4.22"/>
    </symbol>

    <!-- Info / Expand -->
    <symbol id="icon-info" viewBox="0 0 24 24">
      <circle fill="none" stroke="currentColor" stroke-width="2" stroke-linecap="round"
        cx="12" cy="12" r="9"/>
      <line fill="none" stroke="currentColor" stroke-width="2" stroke-linecap="round"
        x1="12" y1="16" x2="12" y2="12"/>
      <circle fill="currentColor" stroke="none" cx="12" cy="8" r="1"/>
    </symbol>

    <!-- Plus / Add -->
    <symbol id="icon-plus" viewBox="0 0 24 24">
      <line fill="none" stroke="currentColor" stroke-width="2" stroke-linecap="round"
        x1="12" y1="5" x2="12" y2="19"/>
      <line fill="none" stroke="currentColor" stroke-width="2" stroke-linecap="round"
        x1="5" y1="12" x2="19" y2="12"/>
    </symbol>

    <!-- Trash / Delete -->
    <symbol id="icon-trash" viewBox="0 0 24 24">
      <polyline fill="none" stroke="currentColor" stroke-width="2" stroke-linecap="round" stroke-linejoin="round"
        points="3 6 5 6 21 6"/>
      <path fill="none" stroke="currentColor" stroke-width="2" stroke-linecap="round" stroke-linejoin="round"
        d="M19 6v14a2 2 0 0 1-2 2H7a2 2 0 0 1-2-2V6m3 0V4a2 2 0 0 1 2-2h4a2 2 0 0 1 2 2v2"/>
      <line fill="none" stroke="currentColor" stroke-width="2" stroke-linecap="round"
        x1="10" y1="11" x2="10" y2="17"/>
      <line fill="none" stroke="currentColor" stroke-width="2" stroke-linecap="round"
        x1="14" y1="11" x2="14" y2="17"/>
    </symbol>

    <!-- Edit / Pencil -->
    <symbol id="icon-edit" viewBox="0 0 24 24">
      <path fill="none" stroke="currentColor" stroke-width="2" stroke-linecap="round" stroke-linejoin="round"
        d="M11 4H4a2 2 0 0 0-2 2v14a2 2 0 0 0 2 2h14a2 2 0 0 0 2-2v-7"/>
      <path fill="none" stroke="currentColor" stroke-width="2" stroke-linecap="round" stroke-linejoin="round"
        d="M18.5 2.5a2.121 2.121 0 0 1 3 3L12 15l-4 1 1-4 9.5-9.5z"/>
    </symbol>

    <!-- Search -->
    <symbol id="icon-search" viewBox="0 0 24 24">
      <circle fill="none" stroke="currentColor" stroke-width="2" stroke-linecap="round"
        cx="11" cy="11" r="7"/>
      <line fill="none" stroke="currentColor" stroke-width="2" stroke-linecap="round"
        x1="21" y1="21" x2="16.65" y2="16.65"/>
    </symbol>

    <!-- Book -->
    <symbol id="icon-book" viewBox="0 0 24 24">
      <path fill="none" stroke="currentColor" stroke-width="2" stroke-linecap="round" stroke-linejoin="round"
        d="M4 19.5A2.5 2.5 0 0 1 6.5 17H20"/>
      <path fill="none" stroke="currentColor" stroke-width="2" stroke-linecap="round" stroke-linejoin="round"
        d="M6.5 2H20v20H6.5A2.5 2.5 0 0 1 4 19.5v-15A2.5 2.5 0 0 1 6.5 2z"/>
    </symbol>

    <!-- Books / Library -->
    <symbol id="icon-books" viewBox="0 0 24 24">
      <path fill="none" stroke="currentColor" stroke-width="2" stroke-linecap="round" stroke-linejoin="round"
        d="M4 19.5A2.5 2.5 0 0 1 6.5 17H20"/>
      <path fill="none" stroke="currentColor" stroke-width="2" stroke-linecap="round" stroke-linejoin="round"
        d="M6.5 2H20v20H6.5A2.5 2.5 0 0 1 4 19.5v-15A2.5 2.5 0 0 1 6.5 2z"/>
      <line fill="none" stroke="currentColor" stroke-width="2" stroke-linecap="round"
        x1="8" y1="6" x2="16" y2="6"/>
      <line fill="none" stroke="currentColor" stroke-width="2" stroke-linecap="round"
        x1="8" y1="10" x2="14" y2="10"/>
    </symbol>

    <!-- Tag -->
    <symbol id="icon-tag" viewBox="0 0 24 24">
      <path fill="none" stroke="currentColor" stroke-width="2" stroke-linecap="round" stroke-linejoin="round"
        d="M20.59 13.41l-7.17 7.17a2 2 0 0 1-2.83 0L2 12V2h10l8.59 8.59a2 2 0 0 1 0 2.82z"/>
      <circle fill="currentColor" stroke="none" cx="7" cy="7" r="1.5"/>
    </symbol>

    <!-- Filter -->
    <symbol id="icon-filter" viewBox="0 0 24 24">
      <polygon fill="none" stroke="currentColor" stroke-width="2" stroke-linecap="round" stroke-linejoin="round"
        points="22 3 2 3 10 12.46 10 19 14 21 14 12.46 22 3"/>
    </symbol>

    <!-- Check -->
    <symbol id="icon-check" viewBox="0 0 24 24">
      <polyline fill="none" stroke="currentColor" stroke-width="2" stroke-linecap="round" stroke-linejoin="round"
        points="20 6 9 17 4 12"/>
    </symbol>

    <!-- Chevron Down -->
    <symbol id="icon-chevron-down" viewBox="0 0 24 24">
      <polyline fill="none" stroke="currentColor" stroke-width="2" stroke-linecap="round" stroke-linejoin="round"
        points="6 9 12 15 18 9"/>
    </symbol>

    <!-- Chevron Right -->
    <symbol id="icon-chevron-right" viewBox="0 0 24 24">
      <polyline fill="none" stroke="currentColor" stroke-width="2" stroke-linecap="round" stroke-linejoin="round"
        points="9 18 15 12 9 6"/>
    </symbol>

    <!-- External Link -->
    <symbol id="icon-external" viewBox="0 0 24 24">
      <path fill="none" stroke="currentColor" stroke-width="2" stroke-linecap="round" stroke-linejoin="round"
        d="M18 13v6a2 2 0 0 1-2 2H5a2 2 0 0 1-2-2V8a2 2 0 0 1 2-2h6"/>
      <polyline fill="none" stroke="currentColor" stroke-width="2" stroke-linecap="round" stroke-linejoin="round"
        points="15 3 21 3 21 9"/>
      <line fill="none" stroke="currentColor" stroke-width="2" stroke-linecap="round"
        x1="10" y1="14" x2="21" y2="3"/>
    </symbol>

    <!-- Copy -->
    <symbol id="icon-copy" viewBox="0 0 24 24">
      <rect fill="none" stroke="currentColor" stroke-width="2" stroke-linecap="round" stroke-linejoin="round"
        x="9" y="9" width="13" height="13" rx="2"/>
      <path fill="none" stroke="currentColor" stroke-width="2" stroke-linecap="round" stroke-linejoin="round"
        d="M5 15H4a2 2 0 0 1-2-2V4a2 2 0 0 1 2-2h9a2 2 0 0 1 2 2v1"/>
    </symbol>

    <!-- Image -->
    <symbol id="icon-image" viewBox="0 0 24 24">
      <rect fill="none" stroke="currentColor" stroke-width="2" stroke-linecap="round" stroke-linejoin="round"
        x="3" y="3" width="18" height="18" rx="2"/>
      <circle fill="none" stroke="currentColor" stroke-width="2" stroke-linecap="round"
        cx="8.5" cy="8.5" r="1.5"/>
      <polyline fill="none" stroke="currentColor" stroke-width="2" stroke-linecap="round" stroke-linejoin="round"
        points="21 15 16 10 5 21"/>
    </symbol>

    <!-- Folder -->
    <symbol id="icon-folder" viewBox="0 0 24 24">
      <path fill="none" stroke="currentColor" stroke-width="2" stroke-linecap="round" stroke-linejoin="round"
        d="M22 19a2 2 0 0 1-2 2H4a2 2 0 0 1-2-2V5a2 2 0 0 1 2-2h5l2 3h9a2 2 0 0 1 2 2z"/>
    </symbol>

    <!-- User -->
    <symbol id="icon-user" viewBox="0 0 24 24">
      <path fill="none" stroke="currentColor" stroke-width="2" stroke-linecap="round" stroke-linejoin="round"
        d="M20 21v-2a4 4 0 0 0-4-4H8a4 4 0 0 0-4 4v2"/>
      <circle fill="none" stroke="currentColor" stroke-width="2" stroke-linecap="round"
        cx="12" cy="7" r="4"/>
    </symbol>

    <!-- Calendar -->
    <symbol id="icon-calendar" viewBox="0 0 24 24">
      <rect fill="none" stroke="currentColor" stroke-width="2" stroke-linecap="round" stroke-linejoin="round"
        x="3" y="4" width="18" height="18" rx="2"/>
      <line fill="none" stroke="currentColor" stroke-width="2" stroke-linecap="round"
        x1="16" y1="2" x2="16" y2="6"/>
      <line fill="none" stroke="currentColor" stroke-width="2" stroke-linecap="round"
        x1="8" y1="2" x2="8" y2="6"/>
      <line fill="none" stroke="currentColor" stroke-width="2" stroke-linecap="round"
        x1="3" y1="10" x2="21" y2="10"/>
    </symbol>

    <!-- Heart / Favorite -->
    <symbol id="icon-heart" viewBox="0 0 24 24">
      <path fill="none" stroke="currentColor" stroke-width="2" stroke-linecap="round" stroke-linejoin="round"
        d="M20.84 4.61a5.5 5.5 0 0 0-7.78 0L12 5.67l-1.06-1.06a5.5 5.5 0 0 0-7.78 7.78l1.06 1.06L12 21.23l7.78-7.78 1.06-1.06a5.5 5.5 0 0 0 0-7.78z"/>
    </symbol>

    <!-- Bookmark -->
    <symbol id="icon-bookmark" viewBox="0 0 24 24">
      <path fill="none" stroke="currentColor" stroke-width="2" stroke-linecap="round" stroke-linejoin="round"
        d="M19 21l-7-5-7 5V5a2 2 0 0 1 2-2h10a2 2 0 0 1 2 2z"/>
    </symbol>

    <!-- AI / Robot -->
    <symbol id="icon-ai" viewBox="0 0 24 24">
      <rect fill="none" stroke="currentColor" stroke-width="2" stroke-linecap="round" stroke-linejoin="round"
        x="3" y="8" width="18" height="12" rx="2"/>
      <circle fill="currentColor" stroke="none" cx="8.5" cy="14" r="1.5"/>
      <circle fill="currentColor" stroke="none" cx="15.5" cy="14" r="1.5"/>
      <line fill="none" stroke="currentColor" stroke-width="2" stroke-linecap="round"
        x1="9" y1="4" x2="9" y2="8"/>
      <line fill="none" stroke="currentColor" stroke-width="2" stroke-linecap="round"
        x1="15" y1="4" x2="15" y2="8"/>
    </symbol>

    <!-- Globe / Language -->
    <symbol id="icon-globe" viewBox="0 0 24 24">
      <circle fill="none" stroke="currentColor" stroke-width="2" stroke-linecap="round"
        cx="12" cy="12" r="9"/>
      <line fill="none" stroke="currentColor" stroke-width="2" stroke-linecap="round"
        x1="3" y1="12" x2="21" y2="12"/>
      <path fill="none" stroke="currentColor" stroke-width="2" stroke-linecap="round" stroke-linejoin="round"
        d="M12 3a15.3 15.3 0 0 1 4 9 15.3 15.3 0 0 1-4 9 15.3 15.3 0 0 1-4-9 15.3 15.3 0 0 1 4-9z"/>
    </symbol>

    <!-- Move / Hand -->
    <symbol id="icon-move" viewBox="0 0 24 24">
      <polyline fill="none" stroke="currentColor" stroke-width="2" stroke-linecap="round" stroke-linejoin="round"
        points="5 9 2 12 5 15"/>
      <polyline fill="none" stroke="currentColor" stroke-width="2" stroke-linecap="round" stroke-linejoin="round"
        points="9 5 12 2 15 5"/>
      <polyline fill="none" stroke="currentColor" stroke-width="2" stroke-linecap="round" stroke-linejoin="round"
        points="15 19 12 22 9 19"/>
      <polyline fill="none" stroke="currentColor" stroke-width="2" stroke-linecap="round" stroke-linejoin="round"
        points="19 9 22 12 19 15"/>
      <line fill="none" stroke="currentColor" stroke-width="2" stroke-linecap="round"
        x1="2" y1="12" x2="22" y2="12"/>
      <line fill="none" stroke="currentColor" stroke-width="2" stroke-linecap="round"
        x1="12" y1="2" x2="12" y2="22"/>
    </symbol>
  </defs>
</svg>

