<?xml version="1.0" encoding="UTF-8"?>
<svg xmlns="http://www.w3.org/2000/svg" viewBox="0 0 1024 1024">
  <defs>
    <linearGradient id="bg" x1="0" y1="0" x2="1" y2="1">
      <stop offset="0%" stop-color="#4f46e5"/>
      <stop offset="50%" stop-color="#7c3aed"/>
      <stop offset="100%" stop-color="#f43f5e"/>
    </linearGradient>
    <radialGradient id="glow" cx="32%" cy="28%" r="70%">
      <stop offset="0%" stop-color="#ffffff" stop-opacity="0.25"/>
      <stop offset="100%" stop-color="#ffffff" stop-opacity="0"/>
    </radialGradient>
  </defs>

  <!-- Background -->
  <rect x="64" y="64" width="896" height="896" rx="200" fill="url(#bg)"/>
  <rect x="64" y="64" width="896" height="896" rx="200" fill="url(#glow)"/>

  <!-- Open book -->
  <!-- Left page -->
  <path d="M240,330 C240,300 265,280 295,280 H472 c45,0 85,20 130,52 V740 c-45,-32 -85,-52 -130,-52 H295 c-30,0 -55,20 -55,50 Z"
        fill="#ffffff" opacity="0.95"/>
  <!-- Right page -->
  <path d="M784,330 c0,-30 -25,-50 -55,-50 H568 c-45,0 -85,20 -130,52 V740 c45,-32 85,-52 130,-52 h161 c30,0 55,20 55,50 Z"
        fill="#ffffff" opacity="0.95"/>
  <!-- Spine -->
  <rect x="496" y="300" width="32" height="440" fill="#e2e8f0"/>

  <!-- Page hints -->
  <path d="M320,360 h180" stroke="#e5e7eb" stroke-width="8" stroke-linecap="round" opacity="0.8"/>
  <path d="M320,410 h160" stroke="#e5e7eb" stroke-width="8" stroke-linecap="round" opacity="0.7"/>
  <path d="M320,460 h140" stroke="#e5e7eb" stroke-width="8" stroke-linecap="round" opacity="0.6"/>
  <path d="M704,360 h-180" stroke="#e5e7eb" stroke-width="8" stroke-linecap="round" opacity="0.8"/>
  <path d="M724,410 h-160" stroke="#e5e7eb" stroke-width="8" stroke-linecap="round" opacity="0.7"/>
  <path d="M744,460 h-140" stroke="#e5e7eb" stroke-width="8" stroke-linecap="round" opacity="0.6"/>

  <!-- Ribbon bookmark -->
  <path d="M608,280 h72 a24,24 0 0 1 24,24 v160 l-60,-34 -60,34 V304 a24,24 0 0 1 24,-24 Z"
        fill="#fbbf24"/>

  <!-- Sparkle -->
  <g transform="translate(780 240) scale(1.1)">
    <path d="M32 0c4 20 12 32 24 44s24 20 44 24c-20 4-32 12-44 24S36 116 32 136c-4-20-12-32-24-44S-16 68-36 64c20-4 32-12 44-24S28 20 32 0z"
          fill="#ffffff" opacity="0.9"/>
  </g>
</svg>

