<svg xmlns="http://www.w3.org/2000/svg" width="24" height="24" viewBox="0 0 24 24" fill="currentColor">
  <path fill-rule="evenodd" clip-rule="evenodd" d="M12 2C6.477 2 2 6.477 2 12s4.477 10 10 10 10-4.477 10-10S17.523 2 12 2Zm-2 2.07A8.002 8.002 0 0 0 4 12c0 .69.088 1.36.252 2H8a20.5 20.5 0 0 1-.002-4H4.252A7.963 7.963 0 0 1 10 4.07ZM10 10c0 1.368.042 2.7.124 4h3.752c.082-1.3.124-2.632.124-4s-.042-2.7-.124-4h-3.752A28.36 28.36 0 0 0 10 10Zm4 6H10v.354c.199 1.858.585 3.26 1 4.006.13.233.255.411.366.536.055.062.097.099.122.118l.012.01.012-.01c.025-.02.067-.056.122-.118.11-.125.236-.303.366-.536.415-.746.801-2.148 1-4.006V16Zm-6-.034c-.003.02-.002.028 0 .01v-.01Zm0-7.932v-.01c.002-.018.003-.01 0 .01Zm0 0a20.5 20.5 0 0 0 0 7.932 20.5 20.5 0 0 0 0-7.932ZM10 8v-.354c.199-1.858.585-3.26 1-4.006.13-.233.255-.411.366-.536A1.316 1.316 0 0 1 11.5 3l.012.01c.025.02.067.056.122.118.11.125.236.303.366.536.415.746.801 2.148 1 4.006V8h-3Zm6 .034c.003-.02.002-.028 0-.01v.01Zm0 7.932v.01c-.002.018-.003.01 0-.01Zm0 0a20.5 20.5 0 0 0 0-7.932 20.5 20.5 0 0 0 0 7.932Zm0-6.058V10c0 1.386-.042 2.735-.126 4.05.002-.02.004-.036.004-.05H20c0-.69-.088-1.36-.252-2h-3.746A28.36 28.36 0 0 0 16 10ZM14 4.07a8.002 8.002 0 0 1 5.748 5.93h-3.746A19.11 19.11 0 0 0 14 4.07Zm0 15.86a19.11 19.11 0 0 0 1.998-5.93h3.75A8.002 8.002 0 0 1 14 19.93Zm-4 0a8.002 8.002 0 0 1-5.748-5.93h3.746c.261 2.22.8 4.29 2.002 5.93Z"/>
</svg>

