<svg xmlns="http://www.w3.org/2000/svg" width="24" height="24" viewBox="0 0 24 24" fill="currentColor">
  <circle cx="12" cy="12" r="4"/>
  <path d="M12 2a1 1 0 0 1 1 1v2a1 1 0 1 1-2 0V3a1 1 0 0 1 1-1Z"/>
  <path d="M12 18a1 1 0 0 1 1 1v2a1 1 0 1 1-2 0v-2a1 1 0 0 1 1-1Z"/>
  <path d="M4.929 4.929a1 1 0 0 1 1.414 0l1.414 1.414a1 1 0 1 1-1.414 1.414L4.93 6.343a1 1 0 0 1 0-1.414Z"/>
  <path d="M16.243 16.243a1 1 0 0 1 1.414 0l1.414 1.414a1 1 0 1 1-1.414 1.414l-1.414-1.414a1 1 0 0 1 0-1.414Z"/>
  <path d="M2 12a1 1 0 0 1 1-1h2a1 1 0 1 1 0 2H3a1 1 0 0 1-1-1Z"/>
  <path d="M18 12a1 1 0 0 1 1-1h2a1 1 0 1 1 0 2h-2a1 1 0 0 1-1-1Z"/>
  <path d="M6.343 16.243a1 1 0 0 1 0 1.414l-1.414 1.414a1 1 0 1 1-1.414-1.414l1.414-1.414a1 1 0 0 1 1.414 0Z"/>
  <path d="M17.657 4.929a1 1 0 0 1 0 1.414l-1.414 1.414a1 1 0 1 1-1.414-1.414l1.414-1.414a1 1 0 0 1 1.414 0Z"/>
</svg>

