<svg width="14" height="14" viewBox="0 0 14 14" fill="none" xmlns="http://www.w3.org/2000/svg">
<g clip-path="url(#clip0_1545_8551)">
<path d="M12.64 1.8699L11.8 4.3499C11.771 4.40726 11.7559 4.47063 11.7559 4.5349C11.7559 4.59917 11.771 4.66255 11.8 4.7199L13.37 6.8199C13.4151 6.88001 13.4424 6.95161 13.4487 7.0265C13.455 7.1014 13.4401 7.17655 13.4056 7.24335C13.3712 7.31015 13.3186 7.36589 13.254 7.40419C13.1893 7.44249 13.1152 7.4618 13.04 7.4599H10.42C10.3558 7.46179 10.2928 7.47804 10.2357 7.50746C10.1786 7.53688 10.1288 7.57872 10.09 7.6299L8.63003 9.7299C8.5872 9.79129 8.52802 9.83943 8.4592 9.86885C8.39038 9.89827 8.31468 9.90779 8.24072 9.89633C8.16676 9.88488 8.09749 9.85289 8.0408 9.80403C7.98411 9.75516 7.94226 9.69137 7.92003 9.6199L7.14002 7.1199C7.12223 7.05811 7.08904 7.00184 7.04357 6.95636C6.99809 6.91089 6.94182 6.8777 6.88003 6.8599L4.38003 6.0799C4.30856 6.05766 4.24477 6.01582 4.1959 5.95913C4.14703 5.90244 4.11505 5.83317 4.10359 5.75921C4.09213 5.68525 4.10166 5.60955 4.13108 5.54073C4.1605 5.47191 4.20864 5.41272 4.27003 5.3699L6.41002 3.8599C6.46121 3.82109 6.50305 3.7713 6.53247 3.71419C6.56189 3.65709 6.57814 3.59411 6.58002 3.5299V0.909903C6.58282 0.841088 6.60333 0.77416 6.63958 0.715598C6.67583 0.657037 6.72658 0.608827 6.78693 0.575637C6.84728 0.542446 6.91517 0.525399 6.98404 0.526147C7.0529 0.526894 7.12041 0.54541 7.18002 0.579903L9.28003 2.1499C9.33334 2.18693 9.39468 2.21077 9.459 2.21946C9.52333 2.22816 9.5888 2.22145 9.65002 2.1999L12.13 1.3599C12.2011 1.33491 12.2779 1.33052 12.3514 1.34724C12.4249 1.36397 12.4922 1.40113 12.5455 1.45443C12.5988 1.50774 12.636 1.57503 12.6527 1.64853C12.6694 1.72204 12.665 1.79878 12.64 1.8699V1.8699Z" stroke="#000001" stroke-linecap="round" stroke-linejoin="round"/>
<path d="M7.04 6.95996L0.5 13.5" stroke="#000001" stroke-linecap="round" stroke-linejoin="round"/>
</g>
<defs>
<clipPath id="clip0_1545_8551">
<rect width="14" height="14" fill="white"/>
</clipPath>
</defs>
</svg>
