<svg width="14" height="14" viewBox="0 0 14 14" fill="none" xmlns="http://www.w3.org/2000/svg">
<g clip-path="url(#clip0_1545_11586)">
<path d="M13.25 9.35994L9.36 13.2499C9.21937 13.3904 9.02875 13.4693 8.83 13.4693C8.63125 13.4693 8.44062 13.3904 8.3 13.2499L1.79 6.73994C1.75121 6.70286 1.7212 6.65757 1.70217 6.6074C1.68313 6.55722 1.67556 6.50343 1.68 6.44994L2.27 2.60994C2.27688 2.52206 2.31491 2.43952 2.37724 2.37719C2.43957 2.31485 2.52211 2.27682 2.61 2.26994L6.45 1.67994C6.50348 1.67551 6.55728 1.68308 6.60745 1.70211C6.65763 1.72114 6.70291 1.75115 6.74 1.78994L13.25 8.29994C13.3904 8.44057 13.4693 8.63119 13.4693 8.82994C13.4693 9.0287 13.3904 9.21932 13.25 9.35994V9.35994Z" stroke="#000001" stroke-linecap="round" stroke-linejoin="round"/>
<path d="M4.03 4.03003L0.529999 0.530029" stroke="#000001" stroke-linecap="round" stroke-linejoin="round"/>
</g>
<defs>
<clipPath id="clip0_1545_11586">
<rect width="14" height="14" fill="white"/>
</clipPath>
</defs>
</svg>
