<svg xmlns="http://www.w3.org/2000/svg" width="24" height="24" viewBox="0 0 24 24" fill="currentColor">
  <path opacity="0.4" d="M12 1a1 1 0 0 1 1 1v1.06a8 8 0 0 1 3.29 1.36l.75-.75a1 1 0 1 1 1.41 1.42l-.75.75A8 8 0 0 1 19.06 9H20a1 1 0 1 1 0 2h-.94a8 8 0 0 1-.71 2.29l.75.75a1 1 0 1 1-1.41 1.41l-.75-.75a8 8 0 0 1-2.65 1.54v.76a1 1 0 1 1-2 0v-.76a8 8 0 0 1-2.65-1.54l-.75.75a1 1 0 1 1-1.41-1.41l.75-.75A8 8 0 0 1 4.94 11H4a1 1 0 1 1 0-2h.94a8 8 0 0 1 .71-2.29l-.75-.75a1 1 0 0 1 1.41-1.42l.75.75A8 8 0 0 1 11 3.06V2a1 1 0 0 1 1-1Z"/>
  <circle cx="12" cy="12" r="4"/>
</svg>

