<svg width="14" height="14" viewBox="0 0 14 14" fill="none" xmlns="http://www.w3.org/2000/svg">
<g clip-path="url(#clip0_1545_11200)">
<path d="M6.99999 13.4999C5.53523 11.8872 3.54878 10.8427 1.38999 10.5499C1.14427 10.5227 0.91733 10.4054 0.752972 10.2208C0.588615 10.0361 0.498488 9.79709 0.499988 9.54988V1.49988C0.499978 1.35544 0.531259 1.21271 0.591679 1.08151C0.652099 0.950317 0.740222 0.833766 0.849988 0.739879C0.95782 0.6477 1.08403 0.579519 1.22024 0.539864C1.35644 0.500209 1.49953 0.489988 1.63999 0.509879C3.70428 0.852486 5.59271 1.88126 6.99999 3.42988V13.4999Z" stroke="#000001" stroke-linecap="round" stroke-linejoin="round"/>
<path d="M7 13.4999C8.46476 11.8872 10.4512 10.8427 12.61 10.5499C12.8557 10.5227 13.0827 10.4054 13.247 10.2208C13.4114 10.0361 13.5015 9.79709 13.5 9.54988V1.49988C13.5 1.35544 13.4687 1.21271 13.4083 1.08151C13.3479 0.950317 13.2598 0.833766 13.15 0.739879C13.0422 0.6477 12.916 0.579519 12.7798 0.539864C12.6435 0.500209 12.5005 0.489988 12.36 0.509879C10.2957 0.852486 8.40728 1.88126 7 3.42988V13.4999Z" stroke="#000001" stroke-linecap="round" stroke-linejoin="round"/>
</g>
<defs>
<clipPath id="clip0_1545_11200">
<rect width="14" height="14" fill="white"/>
</clipPath>
</defs>
</svg>
