<svg width="14" height="14" viewBox="0 0 14 14" fill="none" xmlns="http://www.w3.org/2000/svg">
<g clip-path="url(#clip0_1545_10649)">
<path d="M4 6.48999L0.79 9.66999C0.696272 9.76295 0.621877 9.87355 0.571109 9.99541C0.52034 10.1173 0.494202 10.248 0.494202 10.38C0.494202 10.512 0.52034 10.6427 0.571109 10.7646C0.621877 10.8864 0.696272 10.997 0.79 11.09L2.91 13.21C3.00296 13.3037 3.11356 13.3781 3.23542 13.4289C3.35728 13.4797 3.48799 13.5058 3.62 13.5058C3.75201 13.5058 3.88272 13.4797 4.00458 13.4289C4.12644 13.3781 4.23704 13.3037 4.33 13.21L7.51 9.99999" stroke="#000001" stroke-linecap="round" stroke-linejoin="round"/>
<path d="M9.99999 7.50994L13.18 4.32994C13.2737 4.23698 13.3481 4.12637 13.3989 4.00452C13.4497 3.88266 13.4758 3.75195 13.4758 3.61994C13.4758 3.48793 13.4497 3.35722 13.3989 3.23536C13.3481 3.1135 13.2737 3.0029 13.18 2.90994L11.09 0.789939C10.997 0.696211 10.8864 0.621816 10.7646 0.571048C10.6427 0.520279 10.512 0.494141 10.38 0.494141C10.248 0.494141 10.1173 0.520279 9.99541 0.571048C9.87355 0.621816 9.76295 0.696211 9.66999 0.789939L6.48999 3.99994" stroke="#000001" stroke-linecap="round" stroke-linejoin="round"/>
<path d="M9 5L5 9" stroke="#000001" stroke-linecap="round" stroke-linejoin="round"/>
</g>
<defs>
<clipPath id="clip0_1545_10649">
<rect width="14" height="14" fill="white"/>
</clipPath>
</defs>
</svg>
