<svg width="14" height="14" viewBox="0 0 14 14" fill="none" xmlns="http://www.w3.org/2000/svg">
<g clip-path="url(#clip0_1545_10913)">
<path d="M7.47003 6.90008C7.3217 6.96449 7.16173 6.99772 7.00003 6.99772C6.83832 6.99772 6.67835 6.96449 6.53003 6.90008L0.830026 4.26008C0.737468 4.2134 0.659684 4.14194 0.605338 4.05366C0.550992 3.96538 0.522217 3.86375 0.522217 3.76008C0.522217 3.65642 0.550992 3.55479 0.605338 3.46651C0.659684 3.37823 0.737468 3.30677 0.830026 3.26008L6.53003 0.600083C6.67835 0.535676 6.83832 0.502441 7.00003 0.502441C7.16173 0.502441 7.3217 0.535676 7.47003 0.600083L13.17 3.24008C13.2626 3.28677 13.3404 3.35823 13.3947 3.44651C13.4491 3.53479 13.4778 3.63642 13.4778 3.74008C13.4778 3.84375 13.4491 3.94538 13.3947 4.03366C13.3404 4.12194 13.2626 4.1934 13.17 4.24008L7.47003 6.90008Z" stroke="#000001" stroke-linecap="round" stroke-linejoin="round"/>
<path d="M13.5 7.3501L7.4 10.1601C7.26972 10.2195 7.12819 10.2503 6.985 10.2503C6.84181 10.2503 6.70028 10.2195 6.57 10.1601L0.5 7.3501" stroke="#000001" stroke-linecap="round" stroke-linejoin="round"/>
<path d="M13.5 10.6001L7.4 13.4101C7.26972 13.4695 7.12819 13.5003 6.985 13.5003C6.84181 13.5003 6.70028 13.4695 6.57 13.4101L0.5 10.6001" stroke="#000001" stroke-linecap="round" stroke-linejoin="round"/>
</g>
<defs>
<clipPath id="clip0_1545_10913">
<rect width="14" height="14" fill="white"/>
</clipPath>
</defs>
</svg>
